<?xml version="1.0" encoding="UTF-8"?>
<svg xmlns="http://www.w3.org/2000/svg" xmlns:xlink="http://www.w3.org/1999/xlink" width="48pt" height="48pt" viewBox="0 0 48 48" version="1.1">
<g id="surface404479">
<path style=" stroke:none;fill-rule:nonzero;fill:rgb(45.490196%,47.45098%,52.156863%);fill-opacity:1;" d="M 20.625 -0.0625 C 17.179688 -0.0625 14.328125 2.632812 14 6 L 4 6 L 4 10 L 13.9375 10 L 13.9375 10.0625 L 34.0625 10.0625 L 34.0625 10 L 44 10 L 44 6 L 34 6 C 33.6875 2.632812 30.96875 -0.0625 27.625 -0.0625 Z M 20.625 4.0625 L 27.625 4.0625 C 28.640625 4.0625 29.390625 4.859375 29.6875 5.9375 L 18.3125 5.9375 C 18.59375 4.859375 19.375 4.0625 20.625 4.0625 Z M 8 12 L 8 45 C 8 46.601562 9.398438 48 11 48 L 37.1875 48 C 38.789062 48 40.1875 46.601562 40.1875 45 L 40.1875 12 Z M 14 18 L 16 18 L 16 44 L 14 44 Z M 20 18 L 22 18 L 22 44 L 20 44 Z M 26 18 L 28 18 L 28 44 L 26 44 Z M 32 18 L 34 18 L 34 44 L 32 44 Z M 32 18 "/>
</g>
</svg>
